[hls @ 0000021307564f80] Opening 'https://tv.vodu.me:1995/bein1/ssc1/tracks-v1a1/2025/08/04/19/56/51-05360.ts' for reading
[hls @ 0000021307564f80] Opening 'https://tv.vodu.me:1995/bein1/ssc1/tracks-v1a1/2025/08/04/19/56/56-06600.ts' for reading
Input #0, hls, from 'https://tv.vodu.me:1995/bein1/ssc1/tracks-v1a1/mono.m3u8':
  Duration: N/A, start: 81880.091889, bitrate: N/A
  Program 0 
    Metadata:
      variant_bitrate : 0
  Stream #0:0: Video: h264 (Main) ([27][0][0][0] / 0x001B), yuv420p(tv, bt709), 1280x720 [SAR 1:1 DAR 16:9], 25 fps, 25 tbr, 90k tbn, start 81880.129222
    Metadata:
      variant_bitrate : 0
  Stream #0:1: Audio: aac (LC) ([15][0][0][0] / 0x000F), 48000 Hz, stereo, fltp, start 81880.091889
    Metadata:
      variant_bitrate : 0
Stream mapping:
  Stream #0:0 -> #0:0 (copy)
  Stream #0:1 -> #0:1 (copy)
Output #0, hls, to 'live\channel_7\stream.m3u8':
  Metadata:
    encoder         : Lavf62.1.103
  Stream #0:0: Video: h264 (Main) ([27][0][0][0] / 0x001B), yuv420p(tv, bt709), 1280x720 [SAR 1:1 DAR 16:9], q=2-31, 25 fps, 25 tbr, 90k tbn
    Metadata:
      variant_bitrate : 0
  Stream #0:1: Audio: aac (LC) ([15][0][0][0] / 0x000F), 48000 Hz, stereo, fltp
    Metadata:
      variant_bitrate : 0
Press [q] to stop, [?] for help
[vist#0:0/h264 @ 000002130830d5c0] Resumed reading at pts 0.000 with rate 1.050 after a lag of 0.500s
frame=    8 fps=0.0 q=-1.0 size=N/A time=00:00:00.51 bitrate=N/A speed=1.01x elapsed=0:00:00.51    frame=   21 fps= 20 q=-1.0 size=N/A time=00:00:01.03 bitrate=N/A speed=1.01x elapsed=0:00:01.02    frame=   35 fps= 23 q=-1.0 size=N/A time=00:00:01.59 bitrate=N/A speed=1.03x elapsed=0:00:01.54    frame=   49 fps= 24 q=-1.0 size=N/A time=00:00:02.11 bitrate=N/A speed=1.03x elapsed=0:00:02.05    frame=   62 fps= 24 q=-1.0 size=N/A time=00:00:02.67 bitrate=N/A speed=1.04x elapsed=0:00:02.57    frame=   76 fps= 25 q=-1.0 size=N/A time=00:00:03.23 bitrate=N/A speed=1.05x elapsed=0:00:03.09    frame=   89 fps= 25 q=-1.0 size=N/A time=00:00:03.75 bitrate=N/A speed=1.04x elapsed=0:00:03.60    [hls @ 00000213081c25c0] Opening 'live\channel_7\stream0.ts' for writing
[hls @ 00000213081c25c0] Opening 'live\channel_7\stream.m3u8.tmp' for writing
frame=  103 fps= 25 q=-1.0 size=N/A time=00:00:04.31 bitrate=N/A speed=1.05x elapsed=0:00:04.12    frame=  117 fps= 25 q=-1.0 size=N/A time=00:00:04.83 bitrate=N/A speed=1.04x elapsed=0:00:04.64    [https @ 000002130762a200] Opening 'https://tv.vodu.me:1995/bein1/ssc1/tracks-v1a1/2025/08/04/19/57/03-06240.ts' for reading
frame=  130 fps= 25 q=-1.0 size=N/A time=00:00:05.39 bitrate=N/A speed=1.05x elapsed=0:00:05.15    frame=  143 fps= 25 q=-1.0 size=N/A time=00:00:05.91 bitrate=N/A speed=1.04x elapsed=0:00:05.66    frame=  157 fps= 25 q=-1.0 size=N/A time=00:00:06.47 bitrate=N/A speed=1.05x elapsed=0:00:06.18    frame=  171 fps= 26 q=-1.0 size=N/A time=00:00:06.99 bitrate=N/A speed=1.04x elapsed=0:00:06.70    frame=  184 fps= 25 q=-1.0 size=N/A time=00:00:07.55 bitrate=N/A speed=1.05x elapsed=0:00:07.21    frame=  197 fps= 25 q=-1.0 size=N/A time=00:00:08.07 bitrate=N/A speed=1.04x elapsed=0:00:07.73    [hls @ 00000213081c25c0] Opening 'live\channel_7\stream1.ts' for writing
[hls @ 00000213081c25c0] Opening 'live\channel_7\stream.m3u8.tmp' for writing
frame=  211 fps= 26 q=-1.0 size=N/A time=00:00:08.63 bitrate=N/A speed=1.05x elapsed=0:00:08.24    frame=  224 fps= 26 q=-1.0 size=N/A time=00:00:09.15 bitrate=N/A speed=1.05x elapsed=0:00:08.76    frame=  238 fps= 26 q=-1.0 size=N/A time=00:00:09.71 bitrate=N/A speed=1.05x elapsed=0:00:09.27    frame=  252 fps= 26 q=-1.0 size=N/A time=00:00:10.27 bitrate=N/A speed=1.05x elapsed=0:00:09.79    frame=  264 fps= 26 q=-1.0 size=N/A time=00:00:10.75 bitrate=N/A speed=1.04x elapsed=0:00:10.30    frame=  278 fps= 26 q=-1.0 size=N/A time=00:00:11.31 bitrate=N/A speed=1.05x elapsed=0:00:10.82    frame=  291 fps= 26 q=-1.0 size=N/A time=00:00:11.83 bitrate=N/A speed=1.04x elapsed=0:00:11.34    [https @ 0000021307af7180] Opening 'https://tv.vodu.me:1995/bein1/ssc1/tracks-v1a1/2025/08/04/19/57/09-05360.ts' for reading
[hls @ 00000213081c25c0] Opening 'live\channel_7\stream2.ts' for writing
[hls @ 00000213081c25c0] Opening 'live\channel_7\stream.m3u8.tmp' for writing
frame=  303 fps= 26 q=-1.0 size=N/A time=00:00:12.31 bitrate=N/A speed=1.04x elapsed=0:00:11.85    frame=  316 fps= 26 q=-1.0 size=N/A time=00:00:12.83 bitrate=N/A speed=1.04x elapsed=0:00:12.37    frame=  330 fps= 26 q=-1.0 size=N/A time=00:00:13.35 bitrate=N/A speed=1.04x elapsed=0:00:12.88    frame=  342 fps= 26 q=-1.0 size=N/A time=00:00:13.87 bitrate=N/A speed=1.04x elapsed=0:00:13.40    frame=  355 fps= 26 q=-1.0 size=N/A time=00:00:14.39 bitrate=N/A speed=1.03x elapsed=0:00:13.91    frame=  368 fps= 25 q=-1.0 size=N/A time=00:00:14.91 bitrate=N/A speed=1.03x elapsed=0:00:14.43    frame=  381 fps= 25 q=-1.0 size=N/A time=00:00:15.43 bitrate=N/A speed=1.03x elapsed=0:00:14.95    frame=  394 fps= 25 q=-1.0 size=N/A time=00:00:15.95 bitrate=N/A speed=1.03x elapsed=0:00:15.46    [hls @ 00000213081c25c0] Opening 'live\channel_7\stream3.ts' for writing
[hls @ 00000213081c25c0] Opening 'live\channel_7\stream.m3u8.tmp' for writing
frame=  407 fps= 25 q=-1.0 size=N/A time=00:00:16.43 bitrate=N/A speed=1.03x elapsed=0:00:15.98    frame=  420 fps= 25 q=-1.0 size=N/A time=00:00:16.99 bitrate=N/A speed=1.03x elapsed=0:00:16.49    frame=  432 fps= 25 q=-1.0 size=N/A time=00:00:17.47 bitrate=N/A speed=1.03x elapsed=0:00:17.01    frame=  446 fps= 25 q=-1.0 size=N/A time=00:00:17.99 bitrate=N/A speed=1.03x elapsed=0:00:17.52    [https @ 00000213082dcdc0] Opening 'https://tv.vodu.me:1995/bein1/ssc1/tracks-v1a1/mono.m3u8' for reading
frame=  458 fps= 25 q=-1.0 size=N/A time=00:00:18.51 bitrate=N/A speed=1.03x elapsed=0:00:18.04    frame=  471 fps= 25 q=-1.0 size=N/A time=00:00:19.03 bitrate=N/A speed=1.03x elapsed=0:00:18.55    frame=  484 fps= 25 q=-1.0 size=N/A time=00:00:19.55 bitrate=N/A speed=1.03x elapsed=0:00:19.07    frame=  497 fps= 25 q=-1.0 size=N/A time=00:00:20.07 bitrate=N/A speed=1.02x elapsed=0:00:19.59    [hls @ 00000213081c25c0] Opening 'live\channel_7\stream4.ts' for writing
[hls @ 00000213081c25c0] Opening 'live\channel_7\stream.m3u8.tmp' for writing
frame=  510 fps= 25 q=-1.0 size=N/A time=00:00:20.59 bitrate=N/A speed=1.02x elapsed=0:00:20.10    frame=  523 fps= 25 q=-1.0 size=N/A time=00:00:21.11 bitrate=N/A speed=1.02x elapsed=0:00:20.62    frame=  536 fps= 25 q=-1.0 size=N/A time=00:00:21.59 bitrate=N/A speed=1.02x elapsed=0:00:21.13    frame=  549 fps= 25 q=-1.0 size=N/A time=00:00:22.11 bitrate=N/A speed=1.02x elapsed=0:00:21.65    frame=  561 fps= 25 q=-1.0 size=N/A time=00:00:22.63 bitrate=N/A speed=1.02x elapsed=0:00:22.16    frame=  574 fps= 25 q=-1.0 size=N/A time=00:00:23.15 bitrate=N/A speed=1.02x elapsed=0:00:22.68    [https @ 00000213082dcdc0] Opening 'https://tv.vodu.me:1995/bein1/ssc1/tracks-v1a1/mono.m3u8' for reading
[https @ 0000021307af7180] Opening 'https://tv.vodu.me:1995/bein1/ssc1/tracks-v1a1/2025/08/04/19/57/14-06640.ts' for reading
frame=  587 fps= 25 q=-1.0 size=N/A time=00:00:23.67 bitrate=N/A speed=1.02x elapsed=0:00:23.20    frame=  599 fps= 25 q=-1.0 size=N/A time=00:00:24.15 bitrate=N/A speed=1.02x elapsed=0:00:23.71    [hls @ 00000213081c25c0] Opening 'live\channel_7\stream5.ts' for writing
[hls @ 00000213081c25c0] Opening 'live\channel_7\stream.m3u8.tmp' for writing
frame=  613 fps= 25 q=-1.0 size=N/A time=00:00:24.71 bitrate=N/A speed=1.02x elapsed=0:00:24.23    frame=  626 fps= 25 q=-1.0 size=N/A time=00:00:25.23 bitrate=N/A speed=1.02x elapsed=0:00:24.74    frame=  639 fps= 25 q=-1.0 size=N/A time=00:00:25.71 bitrate=N/A speed=1.02x elapsed=0:00:25.26    frame=  652 fps= 25 q=-1.0 size=N/A time=00:00:26.27 bitrate=N/A speed=1.02x elapsed=0:00:25.77    frame=  664 fps= 25 q=-1.0 size=N/A time=00:00:26.75 bitrate=N/A speed=1.02x elapsed=0:00:26.29    frame=  678 fps= 25 q=-1.0 size=N/A time=00:00:27.27 bitrate=N/A speed=1.02x elapsed=0:00:26.80    frame=  690 fps= 25 q=-1.0 size=N/A time=00:00:27.79 bitrate=N/A speed=1.02x elapsed=0:00:27.32    [hls @ 00000213081c25c0] Opening 'live\channel_7\stream6.ts' for writing
[hls @ 00000213081c25c0] Opening 'live\channel_7\stream.m3u8.tmp' for writing
frame=  703 fps= 25 q=-1.0 size=N/A time=00:00:28.31 bitrate=N/A speed=1.02x elapsed=0:00:27.84    frame=  716 fps= 25 q=-1.0 size=N/A time=00:00:28.83 bitrate=N/A speed=1.02x elapsed=0:00:28.35    frame=  729 fps= 25 q=-1.0 size=N/A time=00:00:29.35 bitrate=N/A speed=1.02x elapsed=0:00:28.87    frame=  742 fps= 25 q=-1.0 size=N/A time=00:00:29.87 bitrate=N/A speed=1.02x elapsed=0:00:29.38    [https @ 00000213082dcdc0] Opening 'https://tv.vodu.me:1995/bein1/ssc1/tracks-v1a1/mono.m3u8' for reading
frame=  749 fps= 25 q=-1.0 size=N/A time=00:00:30.15 bitrate=N/A speed=1.01x elapsed=0:00:29.90    frame=  749 fps= 25 q=-1.0 size=N/A time=00:00:30.15 bitrate=N/A speed=0.991x elapsed=0:00:30.41    frame=  749 fps= 24 q=-1.0 size=N/A time=00:00:30.15 bitrate=N/A speed=0.975x elapsed=0:00:30.93    frame=  749 fps= 24 q=-1.0 size=N/A time=00:00:30.15 bitrate=N/A speed=0.959x elapsed=0:00:31.45    frame=  749 fps= 23 q=-1.0 size=N/A time=00:00:30.15 bitrate=N/A speed=0.943x elapsed=0:00:31.96    frame=  749 fps= 23 q=-1.0 size=N/A time=00:00:30.15 bitrate=N/A speed=0.928x elapsed=0:00:32.48    frame=  749 fps= 23 q=-1.0 size=N/A time=00:00:30.15 bitrate=N/A speed=0.914x elapsed=0:00:32.99    [https @ 00000213082dcdc0] Opening 'https://tv.vodu.me:1995/bein1/ssc1/tracks-v1a1/mono.m3u8' for reading
[https @ 0000021307af7180] Opening 'https://tv.vodu.me:1995/bein1/ssc1/tracks-v1a1/2025/08/04/19/57/21-06000.ts' for reading
[vist#0:0/h264 @ 000002130830d5c0] Resumed reading at pts 30.157 with rate 1.050 after a lag of 3.784s
frame=  751 fps= 22 q=-1.0 size=N/A time=00:00:30.23 bitrate=N/A speed=0.902x elapsed=0:00:33.51    frame=  765 fps= 22 q=-1.0 size=N/A time=00:00:30.79 bitrate=N/A speed=0.905x elapsed=0:00:34.02    frame=  778 fps= 23 q=-1.0 size=N/A time=00:00:31.31 bitrate=N/A speed=0.907x elapsed=0:00:34.54    frame=  791 fps= 23 q=-1.0 size=N/A time=00:00:31.83 bitrate=N/A speed=0.908x elapsed=0:00:35.05    [hls @ 00000213081c25c0] Opening 'live\channel_7\stream7.ts' for writing
[hls @ 00000213081c25c0] Opening 'live\channel_7\stream.m3u8.tmp' for writing
frame=  805 fps= 23 q=-1.0 size=N/A time=00:00:32.39 bitrate=N/A speed=0.911x elapsed=0:00:35.57    frame=  819 fps= 23 q=-1.0 size=N/A time=00:00:32.95 bitrate=N/A speed=0.913x elapsed=0:00:36.09    frame=  832 fps= 23 q=-1.0 size=N/A time=00:00:33.47 bitrate=N/A speed=0.914x elapsed=0:00:36.60    frame=  846 fps= 23 q=-1.0 size=N/A time=00:00:34.03 bitrate=N/A speed=0.917x elapsed=0:00:37.12    frame=  859 fps= 23 q=-1.0 size=N/A time=00:00:34.55 bitrate=N/A speed=0.918x elapsed=0:00:37.63    frame=  873 fps= 23 q=-1.0 size=N/A time=00:00:35.11 bitrate=N/A speed=0.92x elapsed=0:00:38.15    frame=  886 fps= 23 q=-1.0 size=N/A time=00:00:35.63 bitrate=N/A speed=0.922x elapsed=0:00:38.66    frame=  899 fps= 23 q=-1.0 size=N/A time=00:00:36.15 bitrate=N/A speed=0.923x elapsed=0:00:39.18    [https @ 00000213082dcdc0] Opening 'https://tv.vodu.me:1995/bein1/ssc1/tracks-v1a1/mono.m3u8' for reading
[https @ 0000021307af7180] Opening 'https://tv.vodu.me:1995/bein1/ssc1/tracks-v1a1/2025/08/04/19/57/27-06000.ts' for reading
[hls @ 00000213081c25c0] Opening 'live\channel_7\stream8.ts' for writing
[hls @ 00000213081c25c0] Opening 'live\channel_7\stream.m3u8.tmp' for writing
frame=  914 fps= 23 q=-1.0 size=N/A time=00:00:36.71 bitrate=N/A speed=0.925x elapsed=0:00:39.70    frame=  927 fps= 23 q=-1.0 size=N/A time=00:00:37.27 bitrate=N/A speed=0.927x elapsed=0:00:40.21    frame=  941 fps= 23 q=-1.0 size=N/A time=00:00:37.83 bitrate=N/A speed=0.929x elapsed=0:00:40.73    frame=  954 fps= 23 q=-1.0 size=N/A time=00:00:38.35 bitrate=N/A speed=0.93x elapsed=0:00:41.24    frame=  967 fps= 23 q=-1.0 size=N/A time=00:00:38.87 bitrate=N/A speed=0.931x elapsed=0:00:41.76    frame=  981 fps= 23 q=-1.0 size=N/A time=00:00:39.43 bitrate=N/A speed=0.933x elapsed=0:00:42.27    frame=  995 fps= 23 q=-1.0 size=N/A time=00:00:39.99 bitrate=N/A speed=0.935x elapsed=0:00:42.79    [hls @ 00000213081c25c0] Opening 'live\channel_7\stream9.ts' for writing
[hls @ 00000213081c25c0] Opening 'live\channel_7\stream.m3u8.tmp' for writing
frame= 1008 fps= 23 q=-1.0 size=N/A time=00:00:40.51 bitrate=N/A speed=0.936x elapsed=0:00:43.31    frame= 1022 fps= 23 q=-1.0 size=N/A time=00:00:41.07 bitrate=N/A speed=0.937x elapsed=0:00:43.82    frame= 1036 fps= 23 q=-1.0 size=N/A time=00:00:41.59 bitrate=N/A speed=0.938x elapsed=0:00:44.34    frame= 1049 fps= 23 q=-1.0 size=N/A time=00:00:42.15 bitrate=N/A speed=0.94x elapsed=0:00:44.85    frame= 1049 fps= 23 q=-1.0 size=N/A time=00:00:42.15 bitrate=N/A speed=0.929x elapsed=0:00:45.37    [https @ 00000213082dcdc0] Opening 'https://tv.vodu.me:1995/bein1/ssc1/tracks-v1a1/mono.m3u8' for reading
[https @ 0000021307af7180] Opening 'https://tv.vodu.me:1995/bein1/ssc1/tracks-v1a1/2025/08/04/19/57/33-06000.ts' for reading
frame= 1076 fps= 23 q=-1.0 size=N/A time=00:00:43.23 bitrate=N/A speed=0.942x elapsed=0:00:45.88    frame= 1090 fps= 23 q=-1.0 size=N/A time=00:00:43.75 bitrate=N/A speed=0.943x elapsed=0:00:46.40    [hls @ 00000213081c25c0] Opening 'live\channel_7\stream10.ts' for writing
[hls @ 00000213081c25c0] Opening 'live\channel_7\stream.m3u8.tmp' for writing
frame= 1103 fps= 24 q=-1.0 size=N/A time=00:00:44.31 bitrate=N/A speed=0.945x elapsed=0:00:46.91    frame= 1116 fps= 24 q=-1.0 size=N/A time=00:00:44.83 bitrate=N/A speed=0.945x elapsed=0:00:47.43    frame= 1130 fps= 24 q=-1.0 size=N/A time=00:00:45.39 bitrate=N/A speed=0.947x elapsed=0:00:47.95    frame= 1143 fps= 24 q=-1.0 size=N/A time=00:00:45.91 bitrate=N/A speed=0.947x elapsed=0:00:48.46    frame= 1157 fps= 24 q=-1.0 size=N/A time=00:00:46.47 bitrate=N/A speed=0.949x elapsed=0:00:48.98    frame= 1171 fps= 24 q=-1.0 size=N/A time=00:00:47.03 bitrate=N/A speed=0.95x elapsed=0:00:49.49    frame= 1184 fps= 24 q=-1.0 size=N/A time=00:00:47.55 bitrate=N/A speed=0.951x elapsed=0:00:50.01    frame= 1198 fps= 24 q=-1.0 size=N/A time=00:00:48.11 bitrate=N/A speed=0.952x elapsed=0:00:50.52    frame= 1199 fps= 23 q=-1.0 size=N/A time=00:00:48.15 bitrate=N/A speed=0.943x elapsed=0:00:51.04    frame= 1199 fps= 23 q=-1.0 size=N/A time=00:00:48.15 bitrate=N/A speed=0.934x elapsed=0:00:51.56    [https @ 00000213082dcdc0] Opening 'https://tv.vodu.me:1995/bein1/ssc1/tracks-v1a1/mono.m3u8' for reading
frame= 1199 fps= 23 q=-1.0 size=N/A time=00:00:48.15 bitrate=N/A speed=0.925x elapsed=0:00:52.07    frame= 1199 fps= 23 q=-1.0 size=N/A time=00:00:48.15 bitrate=N/A speed=0.916x elapsed=0:00:52.59    frame= 1199 fps= 23 q=-1.0 size=N/A time=00:00:48.15 bitrate=N/A speed=0.907x elapsed=0:00:53.10    frame= 1199 fps= 22 q=-1.0 size=N/A time=00:00:48.15 bitrate=N/A speed=0.898x elapsed=0:00:53.62    frame= 1199 fps= 22 q=-1.0 size=N/A time=00:00:48.15 bitrate=N/A speed=0.89x elapsed=0:00:54.13    frame= 1199 fps= 22 q=-1.0 size=N/A time=00:00:48.15 bitrate=N/A speed=0.881x elapsed=0:00:54.65    frame= 1199 fps= 22 q=-1.0 size=N/A time=00:00:48.15 bitrate=N/A speed=0.873x elapsed=0:00:55.16    [https @ 00000213082dcdc0] Opening 'https://tv.vodu.me:1995/bein1/ssc1/tracks-v1a1/mono.m3u8' for reading
frame= 1199 fps= 22 q=-1.0 size=N/A time=00:00:48.15 bitrate=N/A speed=0.865x elapsed=0:00:55.68    frame= 1199 fps= 21 q=-1.0 size=N/A time=00:00:48.15 bitrate=N/A speed=0.857x elapsed=0:00:56.20    frame= 1199 fps= 21 q=-1.0 size=N/A time=00:00:48.15 bitrate=N/A speed=0.849x elapsed=0:00:56.71    frame= 1199 fps= 21 q=-1.0 size=N/A time=00:00:48.15 bitrate=N/A speed=0.841x elapsed=0:00:57.23    frame= 1199 fps= 21 q=-1.0 size=N/A time=00:00:48.15 bitrate=N/A speed=0.834x elapsed=0:00:57.74    frame= 1199 fps= 21 q=-1.0 size=N/A time=00:00:48.15 bitrate=N/A speed=0.827x elapsed=0:00:58.26    frame= 1199 fps= 20 q=-1.0 size=N/A time=00:00:48.15 bitrate=N/A speed=0.819x elapsed=0:00:58.77    [https @ 00000213082dcdc0] Opening 'https://tv.vodu.me:1995/bein1/ssc1/tracks-v1a1/mono.m3u8' for reading
[https @ 0000021307af7180] Opening 'https://tv.vodu.me:1995/bein1/ssc1/tracks-v1a1/2025/08/04/19/57/39-06000.ts' for reading
[vist#0:0/h264 @ 000002130830d5c0] Resumed reading at pts 48.157 with rate 1.050 after a lag of 11.156s
[hls @ 00000213081c25c0] Opening 'live\channel_7\stream11.ts' for writing
[hls @ 00000213081c25c0] Opening 'live\channel_7\stream.m3u8.tmp' for writing
frame= 1212 fps= 20 q=-1.0 size=N/A time=00:00:48.67 bitrate=N/A speed=0.821x elapsed=0:00:59.29    frame= 1226 fps= 20 q=-1.0 size=N/A time=00:00:49.19 bitrate=N/A speed=0.823x elapsed=0:00:59.80    frame= 1239 fps= 21 q=-1.0 size=N/A time=00:00:49.75 bitrate=N/A speed=0.825x elapsed=0:01:00.32    frame= 1253 fps= 21 q=-1.0 size=N/A time=00:00:50.27 bitrate=N/A speed=0.826x elapsed=0:01:00.84    frame= 1266 fps= 21 q=-1.0 size=N/A time=00:00:50.83 bitrate=N/A speed=0.829x elapsed=0:01:01.35    frame= 1279 fps= 21 q=-1.0 size=N/A time=00:00:51.35 bitrate=N/A speed=0.83x elapsed=0:01:01.87    frame= 1293 fps= 21 q=-1.0 size=N/A time=00:00:51.91 bitrate=N/A speed=0.832x elapsed=0:01:02.38    [hls @ 00000213081c25c0] Opening 'live\channel_7\stream12.ts' for writing
[hls @ 00000213081c25c0] Opening 'live\channel_7\stream.m3u8.tmp' for writing
frame= 1307 fps= 21 q=-1.0 size=N/A time=00:00:52.43 bitrate=N/A speed=0.834x elapsed=0:01:02.90    frame= 1320 fps= 21 q=-1.0 size=N/A time=00:00:52.99 bitrate=N/A speed=0.836x elapsed=0:01:03.41    frame= 1334 fps= 21 q=-1.0 size=N/A time=00:00:53.55 bitrate=N/A speed=0.838x elapsed=0:01:03.93    frame= 1347 fps= 21 q=-1.0 size=N/A time=00:00:54.07 bitrate=N/A speed=0.839x elapsed=0:01:04.45    [https @ 00000213082dcdc0] Opening 'https://tv.vodu.me:1995/bein1/ssc1/tracks-v1a1/mono.m3u8' for reading
frame= 1349 fps= 21 q=-1.0 size=N/A time=00:00:54.15 bitrate=N/A speed=0.834x elapsed=0:01:04.96    frame= 1349 fps= 21 q=-1.0 size=N/A time=00:00:54.15 bitrate=N/A speed=0.827x elapsed=0:01:05.48    frame= 1349 fps= 20 q=-1.0 size=N/A time=00:00:54.15 bitrate=N/A speed=0.821x elapsed=0:01:05.99    frame= 1349 fps= 20 q=-1.0 size=N/A time=00:00:54.15 bitrate=N/A speed=0.814x elapsed=0:01:06.51    frame= 1349 fps= 20 q=-1.0 size=N/A time=00:00:54.15 bitrate=N/A speed=0.808x elapsed=0:01:07.02    frame= 1349 fps= 20 q=-1.0 size=N/A time=00:00:54.15 bitrate=N/A speed=0.802x elapsed=0:01:07.54    [https @ 00000213082dcdc0] Opening 'https://tv.vodu.me:1995/bein1/ssc1/tracks-v1a1/mono.m3u8' for reading
frame= 1349 fps= 20 q=-1.0 size=N/A time=00:00:54.15 bitrate=N/A speed=0.796x elapsed=0:01:08.05    frame= 1349 fps= 20 q=-1.0 size=N/A time=00:00:54.15 bitrate=N/A speed=0.79x elapsed=0:01:08.57    frame= 1349 fps= 20 q=-1.0 size=N/A time=00:00:54.15 bitrate=N/A speed=0.784x elapsed=0:01:09.09    frame= 1349 fps= 19 q=-1.0 size=N/A time=00:00:54.15 bitrate=N/A speed=0.778x elapsed=0:01:09.60    frame= 1349 fps= 19 q=-1.0 size=N/A time=00:00:54.15 bitrate=N/A speed=0.772x elapsed=0:01:10.12    frame= 1349 fps= 19 q=-1.0 size=N/A time=00:00:54.15 bitrate=N/A speed=0.767x elapsed=0:01:10.63    [https @ 00000213082dcdc0] Opening 'https://tv.vodu.me:1995/bein1/ssc1/tracks-v1a1/mono.m3u8' for reading
[https @ 0000021307af7180] Opening 'https://tv.vodu.me:1995/bein1/ssc1/tracks-v1a1/2025/08/04/19/57/45-06000.ts' for reading
[vist#0:0/h264 @ 000002130830d5c0] Resumed reading at pts 54.157 with rate 1.050 after a lag of 17.344s
frame= 1353 fps= 19 q=-1.0 size=N/A time=00:00:54.31 bitrate=N/A speed=0.763x elapsed=0:01:11.15    frame= 1367 fps= 19 q=-1.0 size=N/A time=00:00:54.87 bitrate=N/A speed=0.766x elapsed=0:01:11.66    frame= 1380 fps= 19 q=-1.0 size=N/A time=00:00:55.39 bitrate=N/A speed=0.767x elapsed=0:01:12.18    frame= 1394 fps= 19 q=-1.0 size=N/A time=00:00:55.95 bitrate=N/A speed=0.77x elapsed=0:01:12.70    [hls @ 00000213081c25c0] Opening 'live\channel_7\stream13.ts' for writing
[hls @ 00000213081c25c0] Opening 'live\channel_7\stream.m3u8.tmp' for writing
frame= 1407 fps= 19 q=-1.0 size=N/A time=00:00:56.47 bitrate=N/A speed=0.771x elapsed=0:01:13.21    frame= 1421 fps= 19 q=-1.0 size=N/A time=00:00:57.03 bitrate=N/A speed=0.774x elapsed=0:01:13.73    frame= 1434 fps= 19 q=-1.0 size=N/A time=00:00:57.55 bitrate=N/A speed=0.775x elapsed=0:01:14.24    frame= 1448 fps= 19 q=-1.0 size=N/A time=00:00:58.11 bitrate=N/A speed=0.777x elapsed=0:01:14.76    frame= 1461 fps= 19 q=-1.0 size=N/A time=00:00:58.63 bitrate=N/A speed=0.779x elapsed=0:01:15.27    frame= 1475 fps= 19 q=-1.0 size=N/A time=00:00:59.19 bitrate=N/A speed=0.781x elapsed=0:01:15.79    frame= 1489 fps= 20 q=-1.0 size=N/A time=00:00:59.71 bitrate=N/A speed=0.783x elapsed=0:01:16.30    frame= 1499 fps= 20 q=-1.0 size=N/A time=00:01:00.15 bitrate=N/A speed=0.783x elapsed=0:01:16.82    [https @ 00000213082dcdc0] Opening 'https://tv.vodu.me:1995/bein1/ssc1/tracks-v1a1/mono.m3u8' for reading
[https @ 0000021307af7180] Opening 'https://tv.vodu.me:1995/bein1/ssc1/tracks-v1a1/2025/08/04/19/57/51-06000.ts' for reading
[hls @ 00000213081c25c0] Opening 'live\channel_7\stream14.ts' for writing
[hls @ 00000213081c25c0] Opening 'live\channel_7\stream.m3u8.tmp' for writing
frame= 1516 fps= 20 q=-1.0 size=N/A time=00:01:00.83 bitrate=N/A speed=0.787x elapsed=0:01:17.34    frame= 1529 fps= 20 q=-1.0 size=N/A time=00:01:01.35 bitrate=N/A speed=0.788x elapsed=0:01:17.85    frame= 1543 fps= 20 q=-1.0 size=N/A time=00:01:01.91 bitrate=N/A speed=0.79x elapsed=0:01:18.37    frame= 1557 fps= 20 q=-1.0 size=N/A time=00:01:02.43 bitrate=N/A speed=0.791x elapsed=0:01:18.88    frame= 1570 fps= 20 q=-1.0 size=N/A time=00:01:02.99 bitrate=N/A speed=0.793x elapsed=0:01:19.40    frame= 1583 fps= 20 q=-1.0 size=N/A time=00:01:03.51 bitrate=N/A speed=0.795x elapsed=0:01:19.91    frame= 1597 fps= 20 q=-1.0 size=N/A time=00:01:04.07 bitrate=N/A speed=0.797x elapsed=0:01:20.43    [hls @ 00000213081c25c0] Opening 'live\channel_7\stream15.ts' for writing
[hls @ 00000213081c25c0] Opening 'live\channel_7\stream.m3u8.tmp' for writing
frame= 1610 fps= 20 q=-1.0 size=N/A time=00:01:04.59 bitrate=N/A speed=0.798x elapsed=0:01:20.94    frame= 1624 fps= 20 q=-1.0 size=N/A time=00:01:05.15 bitrate=N/A speed= 0.8x elapsed=0:01:21.47    frame= 1637 fps= 20 q=-1.0 size=N/A time=00:01:05.67 bitrate=N/A speed=0.801x elapsed=0:01:21.97    frame= 1649 fps= 20 q=-1.0 size=N/A time=00:01:06.15 bitrate=N/A speed=0.802x elapsed=0:01:22.49    frame= 1649 fps= 20 q=-1.0 size=N/A time=00:01:06.15 bitrate=N/A speed=0.797x elapsed=0:01:23.01    [https @ 00000213082dcdc0] Opening 'https://tv.vodu.me:1995/bein1/ssc1/tracks-v1a1/mono.m3u8' for reading
frame= 1649 fps= 20 q=-1.0 size=N/A time=00:01:06.15 bitrate=N/A speed=0.792x elapsed=0:01:23.52    frame= 1649 fps= 20 q=-1.0 size=N/A time=00:01:06.15 bitrate=N/A speed=0.787x elapsed=0:01:24.03    frame= 1649 fps= 20 q=-1.0 size=N/A time=00:01:06.15 bitrate=N/A speed=0.782x elapsed=0:01:24.55    frame= 1649 fps= 19 q=-1.0 size=N/A time=00:01:06.15 bitrate=N/A speed=0.778x elapsed=0:01:25.07    frame= 1649 fps= 19 q=-1.0 size=N/A time=00:01:06.15 bitrate=N/A speed=0.773x elapsed=0:01:25.58    frame= 1649 fps= 19 q=-1.0 size=N/A time=00:01:06.15 bitrate=N/A speed=0.768x elapsed=0:01:26.10    [https @ 00000213082dcdc0] Opening 'https://tv.vodu.me:1995/bein1/ssc1/tracks-v1a1/mono.m3u8' for reading
[https @ 0000021307af7180] Opening 'https://tv.vodu.me:1995/bein1/ssc1/tracks-v1a1/2025/08/04/19/57/57-06000.ts' for reading
[vist#0:0/h264 @ 000002130830d5c0] Resumed reading at pts 66.157 with rate 1.050 after a lag of 20.518s
frame= 1661 fps= 19 q=-1.0 size=N/A time=00:01:06.63 bitrate=N/A speed=0.769x elapsed=0:01:26.61    frame= 1674 fps= 19 q=-1.0 size=N/A time=00:01:07.15 bitrate=N/A speed=0.771x elapsed=0:01:27.13    frame= 1687 fps= 19 q=-1.0 size=N/A time=00:01:07.67 bitrate=N/A speed=0.772x elapsed=0:01:27.64    [hls @ 00000213081c25c0] Opening 'live\channel_7\stream16.ts' for writing
[hls @ 00000213081c25c0] Opening 'live\channel_7\stream.m3u8.tmp' for writing
frame= 1701 fps= 19 q=-1.0 size=N/A time=00:01:08.23 bitrate=N/A speed=0.774x elapsed=0:01:28.16    frame= 1715 fps= 19 q=-1.0 size=N/A time=00:01:08.79 bitrate=N/A speed=0.776x elapsed=0:01:28.67    frame= 1728 fps= 19 q=-1.0 size=N/A time=00:01:09.31 bitrate=N/A speed=0.777x elapsed=0:01:29.19    frame= 1742 fps= 19 q=-1.0 size=N/A time=00:01:09.87 bitrate=N/A speed=0.779x elapsed=0:01:29.71    frame= 1755 fps= 19 q=-1.0 size=N/A time=00:01:10.39 bitrate=N/A speed=0.78x elapsed=0:01:30.22    frame= 1769 fps= 19 q=-1.0 size=N/A time=00:01:10.95 bitrate=N/A speed=0.782x elapsed=0:01:30.74    frame= 1782 fps= 20 q=-1.0 size=N/A time=00:01:11.47 bitrate=N/A speed=0.783x elapsed=0:01:31.25    frame= 1796 fps= 20 q=-1.0 size=N/A time=00:01:12.03 bitrate=N/A speed=0.785x elapsed=0:01:31.77    [https @ 00000213082dcdc0] Opening 'https://tv.vodu.me:1995/bein1/ssc1/tracks-v1a1/mono.m3u8' for reading
frame= 1799 fps= 19 q=-1.0 size=N/A time=00:01:12.15 bitrate=N/A speed=0.782x elapsed=0:01:32.29    frame= 1799 fps= 19 q=-1.0 size=N/A time=00:01:12.15 bitrate=N/A speed=0.778x elapsed=0:01:32.80    frame= 1799 fps= 19 q=-1.0 size=N/A time=00:01:12.15 bitrate=N/A speed=0.773x elapsed=0:01:33.32    frame= 1799 fps= 19 q=-1.0 size=N/A time=00:01:12.15 bitrate=N/A speed=0.769x elapsed=0:01:33.83    frame= 1799 fps= 19 q=-1.0 size=N/A time=00:01:12.15 bitrate=N/A speed=0.765x elapsed=0:01:34.35    frame= 1799 fps= 19 q=-1.0 size=N/A time=00:01:12.15 bitrate=N/A speed=0.761x elapsed=0:01:34.86    [https @ 00000213082dcdc0] Opening 'https://tv.vodu.me:1995/bein1/ssc1/tracks-v1a1/mono.m3u8' for reading
frame= 1799 fps= 19 q=-1.0 size=N/A time=00:01:12.15 bitrate=N/A speed=0.756x elapsed=0:01:35.38    frame= 1799 fps= 19 q=-1.0 size=N/A time=00:01:12.15 bitrate=N/A speed=0.752x elapsed=0:01:35.89    frame= 1799 fps= 19 q=-1.0 size=N/A time=00:01:12.15 bitrate=N/A speed=0.748x elapsed=0:01:36.41    frame= 1799 fps= 19 q=-1.0 size=N/A time=00:01:12.15 bitrate=N/A speed=0.744x elapsed=0:01:36.92    frame= 1799 fps= 18 q=-1.0 size=N/A time=00:01:12.15 bitrate=N/A speed=0.74x elapsed=0:01:37.45    frame= 1799 fps= 18 q=-1.0 size=N/A time=00:01:12.15 bitrate=N/A speed=0.737x elapsed=0:01:37.96    [https @ 00000213082dcdc0] Opening 'https://tv.vodu.me:1995/bein1/ssc1/tracks-v1a1/mono.m3u8' for reading
[https @ 0000021307af7180] Opening 'https://tv.vodu.me:1995/bein1/ssc1/tracks-v1a1/2025/08/04/19/58/03-06000.ts' for reading
[vist#0:0/h264 @ 000002130830d5c0] Resumed reading at pts 72.157 with rate 1.050 after a lag of 26.734s
[hls @ 00000213081c25c0] Opening 'live\channel_7\stream17.ts' for writing
[hls @ 00000213081c25c0] Opening 'live\channel_7\stream.m3u8.tmp' for writing
frame= 1802 fps= 18 q=-1.0 size=N/A time=00:01:12.27 bitrate=N/A speed=0.734x elapsed=0:01:38.48    frame= 1815 fps= 18 q=-1.0 size=N/A time=00:01:12.79 bitrate=N/A speed=0.735x elapsed=0:01:38.99    frame= 1829 fps= 18 q=-1.0 size=N/A time=00:01:13.35 bitrate=N/A speed=0.737x elapsed=0:01:39.50    frame= 1842 fps= 18 q=-1.0 size=N/A time=00:01:13.87 bitrate=N/A speed=0.739x elapsed=0:01:40.02    frame= 1856 fps= 18 q=-1.0 size=N/A time=00:01:14.43 bitrate=N/A speed=0.74x elapsed=0:01:40.54    frame= 1870 fps= 19 q=-1.0 size=N/A time=00:01:14.95 bitrate=N/A speed=0.742x elapsed=0:01:41.06    frame= 1883 fps= 19 q=-1.0 size=N/A time=00:01:15.51 bitrate=N/A speed=0.743x elapsed=0:01:41.57    frame= 1896 fps= 19 q=-1.0 size=N/A time=00:01:16.03 bitrate=N/A speed=0.745x elapsed=0:01:42.09    [hls @ 00000213081c25c0] Opening 'live\channel_7\stream18.ts' for writing
[hls @ 00000213081c25c0] Opening 'live\channel_7\stream.m3u8.tmp' for writing
frame= 1910 fps= 19 q=-1.0 size=N/A time=00:01:16.59 bitrate=N/A speed=0.747x elapsed=0:01:42.60    frame= 1924 fps= 19 q=-1.0 size=N/A time=00:01:17.11 bitrate=N/A speed=0.748x elapsed=0:01:43.12    frame= 1937 fps= 19 q=-1.0 size=N/A time=00:01:17.67 bitrate=N/A speed=0.749x elapsed=0:01:43.63    frame= 1949 fps= 19 q=-1.0 size=N/A time=00:01:18.15 bitrate=N/A speed=0.75x elapsed=0:01:44.15    [https @ 00000213082dcdc0] Opening 'https://tv.vodu.me:1995/bein1/ssc1/tracks-v1a1/mono.m3u8' for reading
frame= 1949 fps= 19 q=-1.0 size=N/A time=00:01:18.15 bitrate=N/A speed=0.747x elapsed=0:01:44.67    frame= 1949 fps= 19 q=-1.0 size=N/A time=00:01:18.15 bitrate=N/A speed=0.743x elapsed=0:01:45.18    frame= 1949 fps= 18 q=-1.0 size=N/A time=00:01:18.15 bitrate=N/A speed=0.739x elapsed=0:01:45.70    frame= 1949 fps= 18 q=-1.0 size=N/A time=00:01:18.15 bitrate=N/A speed=0.736x elapsed=0:01:46.21    frame= 1949 fps= 18 q=-1.0 size=N/A time=00:01:18.15 bitrate=N/A speed=0.732x elapsed=0:01:46.73    frame= 1949 fps= 18 q=-1.0 size=N/A time=00:01:18.15 bitrate=N/A speed=0.729x elapsed=0:01:47.24    [https @ 00000213082dcdc0] Opening 'https://tv.vodu.me:1995/bein1/ssc1/tracks-v1a1/mono.m3u8' for reading
frame= 1949 fps= 18 q=-1.0 size=N/A time=00:01:18.15 bitrate=N/A speed=0.725x elapsed=0:01:47.76    frame= 1949 fps= 18 q=-1.0 size=N/A time=00:01:18.15 bitrate=N/A speed=0.722x elapsed=0:01:48.27    frame= 1949 fps= 18 q=-1.0 size=N/A time=00:01:18.15 bitrate=N/A speed=0.718x elapsed=0:01:48.79    frame= 1949 fps= 18 q=-1.0 size=N/A time=00:01:18.15 bitrate=N/A speed=0.715x elapsed=0:01:49.31    frame= 1949 fps= 18 q=-1.0 size=N/A time=00:01:18.15 bitrate=N/A speed=0.712x elapsed=0:01:49.82    frame= 1949 fps= 18 q=-1.0 size=N/A time=00:01:18.15 bitrate=N/A speed=0.708x elapsed=0:01:50.34    [https @ 00000213082dcdc0] Opening 'https://tv.vodu.me:1995/bein1/ssc1/tracks-v1a1/mono.m3u8' for reading
frame= 1949 fps= 18 q=-1.0 size=N/A time=00:01:18.15 bitrate=N/A speed=0.705x elapsed=0:01:50.85    frame= 1949 fps= 17 q=-1.0 size=N/A time=00:01:18.15 bitrate=N/A speed=0.702x elapsed=0:01:51.37    frame= 1949 fps= 17 q=-1.0 size=N/A time=00:01:18.15 bitrate=N/A speed=0.699x elapsed=0:01:51.88    frame= 1949 fps= 17 q=-1.0 size=N/A time=00:01:18.15 bitrate=N/A speed=0.695x elapsed=0:01:52.40    frame= 1949 fps= 17 q=-1.0 size=N/A time=00:01:18.15 bitrate=N/A speed=0.692x elapsed=0:01:52.92    frame= 1949 fps= 17 q=-1.0 size=N/A time=00:01:18.15 bitrate=N/A speed=0.689x elapsed=0:01:53.43    [https @ 00000213082dcdc0] Opening 'https://tv.vodu.me:1995/bein1/ssc1/tracks-v1a1/mono.m3u8' for reading
[https @ 0000021307af7180] Opening 'https://tv.vodu.me:1995/bein1/ssc1/tracks-v1a1/2025/08/04/19/58/09-05640.ts' for reading
[vist#0:0/h264 @ 000002130830d5c0] Resumed reading at pts 78.157 with rate 1.050 after a lag of 35.984s
frame= 1957 fps= 17 q=-1.0 size=N/A time=00:01:18.47 bitrate=N/A speed=0.689x elapsed=0:01:53.95    frame= 1971 fps= 17 q=-1.0 size=N/A time=00:01:19.03 bitrate=N/A speed=0.69x elapsed=0:01:54.46    frame= 1984 fps= 17 q=-1.0 size=N/A time=00:01:19.55 bitrate=N/A speed=0.692x elapsed=0:01:54.98    frame= 1998 fps= 17 q=-1.0 size=N/A time=00:01:20.11 bitrate=N/A speed=0.694x elapsed=0:01:55.49    [hls @ 00000213081c25c0] Opening 'live\channel_7\stream19.ts' for writing
[hls @ 00000213081c25c0] Opening 'live\channel_7\stream.m3u8.tmp' for writing
frame= 2011 fps= 17 q=-1.0 size=N/A time=00:01:20.63 bitrate=N/A speed=0.695x elapsed=0:01:56.00    frame= 2025 fps= 17 q=-1.0 size=N/A time=00:01:21.19 bitrate=N/A speed=0.697x elapsed=0:01:56.53    frame= 2039 fps= 17 q=-1.0 size=N/A time=00:01:21.75 bitrate=N/A speed=0.698x elapsed=0:01:57.05    frame= 2052 fps= 17 q=-1.0 size=N/A time=00:01:22.27 bitrate=N/A speed= 0.7x elapsed=0:01:57.55    frame= 2066 fps= 17 q=-1.0 size=N/A time=00:01:22.83 bitrate=N/A speed=0.702x elapsed=0:01:58.07    frame= 2079 fps= 18 q=-1.0 size=N/A time=00:01:23.35 bitrate=N/A speed=0.703x elapsed=0:01:58.59    frame= 2090 fps= 18 q=-1.0 size=N/A time=00:01:23.79 bitrate=N/A speed=0.704x elapsed=0:01:59.10    [https @ 00000213082dcdc0] Opening 'https://tv.vodu.me:1995/bein1/ssc1/tracks-v1a1/mono.m3u8' for reading
frame= 2090 fps= 17 q=-1.0 size=N/A time=00:01:23.79 bitrate=N/A speed=0.701x elapsed=0:01:59.62    frame= 2090 fps= 17 q=-1.0 size=N/A time=00:01:23.79 bitrate=N/A speed=0.698x elapsed=0:02:00.13    frame= 2090 fps= 17 q=-1.0 size=N/A time=00:01:23.79 bitrate=N/A speed=0.695x elapsed=0:02:00.65    frame= 2090 fps= 17 q=-1.0 size=N/A time=00:01:23.79 bitrate=N/A speed=0.692x elapsed=0:02:01.16    frame= 2090 fps= 17 q=-1.0 size=N/A time=00:01:23.79 bitrate=N/A speed=0.689x elapsed=0:02:01.68    frame= 2090 fps= 17 q=-1.0 size=N/A time=00:01:23.79 bitrate=N/A speed=0.686x elapsed=0:02:02.20    [https @ 00000213082dcdc0] Opening 'https://tv.vodu.me:1995/bein1/ssc1/tracks-v1a1/mono.m3u8' for reading
frame= 2090 fps= 17 q=-1.0 size=N/A time=00:01:23.79 bitrate=N/A speed=0.683x elapsed=0:02:02.71    frame= 2090 fps= 17 q=-1.0 size=N/A time=00:01:23.79 bitrate=N/A speed=0.68x elapsed=0:02:03.23    frame= 2090 fps= 17 q=-1.0 size=N/A time=00:01:23.79 bitrate=N/A speed=0.677x elapsed=0:02:03.74    frame= 2090 fps= 17 q=-1.0 size=N/A time=00:01:23.79 bitrate=N/A speed=0.674x elapsed=0:02:04.26    frame= 2090 fps= 17 q=-1.0 size=N/A time=00:01:23.79 bitrate=N/A speed=0.672x elapsed=0:02:04.77    frame= 2090 fps= 17 q=-1.0 size=N/A time=00:01:23.79 bitrate=N/A speed=0.669x elapsed=0:02:05.29    [https @ 00000213082dcdc0] Opening 'https://tv.vodu.me:1995/bein1/ssc1/tracks-v1a1/mono.m3u8' for reading
[https @ 0000021307af7180] Opening 'https://tv.vodu.me:1995/bein1/ssc1/tracks-v1a1/2025/08/04/20/00/16-05840.ts' for reading
[aist#0:1/aac @ 00000213081c2400] timestamp discontinuity (stream id=0): 121006334, new offset= -121006334
[vist#0:0/h264 @ 000002130830d5c0] Resumed reading at pts 83.757 with rate 1.050 after a lag of 42.245s
[vist#0:0/h264 @ 000002130830d5c0] timestamp discontinuity (stream id=0): -121006333, new offset= -1
[vist#0:0/h264 @ 000002130830d5c0] timestamp discontinuity (stream id=0): 121025000, new offset= -121025001
frame= 2098 fps= 17 q=-1.0 size=N/A time=00:01:24.07 bitrate=N/A speed=0.668x elapsed=0:02:05.81    frame= 2111 fps= 17 q=-1.0 size=N/A time=00:01:24.63 bitrate=N/A speed=0.67x elapsed=0:02:06.33    frame= 2125 fps= 17 q=-1.0 size=N/A time=00:01:25.15 bitrate=N/A speed=0.671x elapsed=0:02:06.83    frame= 2138 fps= 17 q=-1.0 size=N/A time=00:01:25.71 bitrate=N/A speed=0.673x elapsed=0:02:07.35    [hls @ 00000213081c25c0] Opening 'live\channel_7\stream20.ts' for writing
[hls @ 00000213081c25c0] Opening 'live\channel_7\stream.m3u8.tmp' for writing
frame= 2152 fps= 17 q=-1.0 size=N/A time=00:01:26.23 bitrate=N/A speed=0.674x elapsed=0:02:07.87    frame= 2165 fps= 17 q=-1.0 size=N/A time=00:01:26.79 bitrate=N/A speed=0.676x elapsed=0:02:08.38    frame= 2179 fps= 17 q=-1.0 size=N/A time=00:01:27.31 bitrate=N/A speed=0.677x elapsed=0:02:08.90    frame= 2192 fps= 17 q=-1.0 size=N/A time=00:01:27.87 bitrate=N/A speed=0.679x elapsed=0:02:09.41    frame= 2206 fps= 17 q=-1.0 size=N/A time=00:01:28.39 bitrate=N/A speed=0.68x elapsed=0:02:09.93    frame= 2219 fps= 17 q=-1.0 size=N/A time=00:01:28.95 bitrate=N/A speed=0.682x elapsed=0:02:10.44    frame= 2233 fps= 17 q=-1.0 size=N/A time=00:01:29.47 bitrate=N/A speed=0.683x elapsed=0:02:10.96    [https @ 00000213082dcdc0] Opening 'https://tv.vodu.me:1995/bein1/ssc1/tracks-v1a1/mono.m3u8' for reading
frame= 2236 fps= 17 q=-1.0 size=N/A time=00:01:29.63 bitrate=N/A speed=0.682x elapsed=0:02:11.47    frame= 2236 fps= 17 q=-1.0 size=N/A time=00:01:29.63 bitrate=N/A speed=0.679x elapsed=0:02:11.99    frame= 2236 fps= 17 q=-1.0 size=N/A time=00:01:29.63 bitrate=N/A speed=0.676x elapsed=0:02:12.51    frame= 2236 fps= 17 q=-1.0 size=N/A time=00:01:29.63 bitrate=N/A speed=0.674x elapsed=0:02:13.02    frame= 2236 fps= 17 q=-1.0 size=N/A time=00:01:29.63 bitrate=N/A speed=0.671x elapsed=0:02:13.54    frame= 2236 fps= 17 q=-1.0 size=N/A time=00:01:29.63 bitrate=N/A speed=0.669x elapsed=0:02:14.05    [https @ 00000213082dcdc0] Opening 'https://tv.vodu.me:1995/bein1/ssc1/tracks-v1a1/mono.m3u8' for reading
[https @ 0000021307af7180] Opening 'https://tv.vodu.me:1995/bein1/ssc1/tracks-v1a1/2025/08/04/20/00/21-06160.ts' for reading
[vist#0:0/h264 @ 000002130830d5c0] Resumed reading at pts 89.597 with rate 1.050 after a lag of 45.388s
frame= 2238 fps= 17 q=-1.0 size=N/A time=00:01:29.67 bitrate=N/A speed=0.666x elapsed=0:02:14.57    [hls @ 00000213081c25c0] Opening 'live\channel_7\stream21.ts' for writing
[hls @ 00000213081c25c0] Opening 'live\channel_7\stream.m3u8.tmp' for writing
frame= 2251 fps= 17 q=-1.0 size=N/A time=00:01:30.23 bitrate=N/A speed=0.668x elapsed=0:02:15.08    frame= 2265 fps= 17 q=-1.0 size=N/A time=00:01:30.75 bitrate=N/A speed=0.669x elapsed=0:02:15.60    frame= 2278 fps= 17 q=-1.0 size=N/A time=00:01:31.31 bitrate=N/A speed=0.671x elapsed=0:02:16.12    frame= 2292 fps= 17 q=-1.0 size=N/A time=00:01:31.87 bitrate=N/A speed=0.672x elapsed=0:02:16.63    frame= 2305 fps= 17 q=-1.0 size=N/A time=00:01:32.39 bitrate=N/A speed=0.674x elapsed=0:02:17.15    frame= 2319 fps= 17 q=-1.0 size=N/A time=00:01:32.95 bitrate=N/A speed=0.675x elapsed=0:02:17.66    frame= 2333 fps= 17 q=-1.0 size=N/A time=00:01:33.47 bitrate=N/A speed=0.676x elapsed=0:02:18.18    [hls @ 00000213081c25c0] Opening 'live\channel_7\stream22.ts' for writing
[hls @ 00000213081c25c0] Opening 'live\channel_7\stream.m3u8.tmp' for writing
frame= 2346 fps= 17 q=-1.0 size=N/A time=00:01:34.03 bitrate=N/A speed=0.678x elapsed=0:02:18.69    frame= 2360 fps= 17 q=-1.0 size=N/A time=00:01:34.55 bitrate=N/A speed=0.679x elapsed=0:02:19.21    frame= 2373 fps= 17 q=-1.0 size=N/A time=00:01:35.11 bitrate=N/A speed=0.681x elapsed=0:02:19.72    frame= 2387 fps= 17 q=-1.0 size=N/A time=00:01:35.67 bitrate=N/A speed=0.682x elapsed=0:02:20.24    